<svg xmlns="http://www.w3.org/2000/svg" viewBox="0 0 64 64" width="400" height="400" aria-hidden="true">
  <!-- Rain: cloud + teardrop raindrops -->
  <g fill="#ECEFF1" stroke="#78909C" stroke-width="1.2">
    <path d="M44 30H20c-4 0-6-3-6-6s3-6 6-6c1-4 5-7 9-7 4 0 7 2 9 5 2 0 5 2 5 5s-3 6-6 6z"/>
  </g>
  <g fill="#0288D1">
    <path d="M23 40c0 3 3 6 3 6s3-3 3-6-3-4-3-4-3 1-3 4z"/>
    <path d="M31 40c0 3 3 6 3 6s3-3 3-6-3-4-3-4-3 1-3 4z"/>
    <path d="M39 40c0 3 3 6 3 6s3-3 3-6-3-4-3-4-3 1-3 4z"/>
  </g>
</svg>
