<svg xmlns="http://www.w3.org/2000/svg" viewBox="0 0 64 64" width="400" height="400" aria-hidden="true">
  <!-- Snow: cloud + simple snowflake symbols -->
  <g fill="#ECEFF1" stroke="#78909C" stroke-width="1.2">
    <path d="M44 30H20c-4 0-6-3-6-6s3-6 6-6c1-4 5-7 9-7 4 0 7 2 9 5 2 0 5 2 5 5s-3 6-6 6z"/>
  </g>
  <g stroke="#4FC3F7" stroke-width="1.8" stroke-linecap="round" transform="translate(0,6)">
    <g transform="translate(20,38)">
      <path d="M0 0v6" />
      <path d="M-3 3h6" />
      <path d="M-4 -2l4 4" />
      <path d="M4 -2l-4 4" />
    </g>
    <g transform="translate(32,42)">
      <path d="M0 0v6" />
      <path d="M-3 3h6" />
      <path d="M-4 -2l4 4" />
      <path d="M4 -2l-4 4" />
    </g>
  </g>
</svg>
